<svg width="109" height="36" viewBox="0 0 109 36" fill="none" xmlns="http://www.w3.org/2000/svg">
<path d="M56.9469 10.1226V23.2162C56.9469 27.1205 55.1544 30.29 51.2556 30.2955C47.3568 30.2881 45.5643 27.1186 45.5643 23.2162V10.1226H40.2236V23.3331H40.2255C40.283 30.1323 44.4341 35.6232 51.2389 35.638H51.2407C51.2445 35.638 51.2482 35.638 51.2537 35.638C51.2593 35.638 51.2612 35.638 51.2667 35.638H51.2686C58.0733 35.6232 62.2245 30.1323 62.282 23.3331H62.2838V10.1226H56.9432H56.9469Z" fill="#13024F"/>
<path d="M11.2379 15.4613C11.275 15.4632 11.314 15.4632 11.3548 15.4632C12.83 15.4632 14.0251 14.2681 14.0251 12.7929C14.0251 11.3176 12.83 10.1226 11.3548 10.1226C11.3158 10.1226 11.275 10.1226 11.2379 10.1244L0.556641 10.1226V15.4632H11.2379V15.4613Z" fill="url(#paint0_linear_1998_3915)"/>
<path d="M29.2397 0.371094H34.7622V34.9589H29.2397V0.371094Z" fill="#13024F"/>
<path d="M11.4698 0.372949L11.3529 0.371094H0.556641V5.71171H11.3529C15.2628 5.71171 18.4342 8.88305 18.4342 12.7929C18.4342 15.5765 16.8253 17.987 14.4872 19.1431C13.5426 19.6125 12.4793 19.8742 11.3529 19.8742H0.556641V34.9589H6.07912V25.2148H11.3529C18.2133 25.2148 23.7748 19.6534 23.7748 12.7929C23.7748 5.93254 18.2783 0.434187 11.4698 0.372949Z" fill="#13024F"/>
<path d="M67.7504 10.1393H72.9333V14.7581H73.0298C73.1912 14.0807 73.5067 13.4183 73.9743 12.7725C74.4419 12.1267 75.0079 11.5366 75.6704 11.004C76.331 10.4715 77.0659 10.0428 77.8749 9.71993C78.6821 9.39704 79.5061 9.2356 80.3448 9.2356C80.9906 9.2356 81.4341 9.2523 81.6772 9.28384C81.9203 9.31724 82.169 9.34879 82.4287 9.38034V14.7098C82.0409 14.6449 81.6456 14.5892 81.2411 14.541C80.8366 14.4927 80.4413 14.4686 80.0535 14.4686C79.1164 14.4686 78.2368 14.6542 77.4129 15.0253C76.589 15.3964 75.8708 15.9457 75.2566 16.6731C74.6423 17.4005 74.158 18.2968 73.8036 19.362C73.4473 20.4271 73.271 21.6556 73.271 23.0436V34.9607H67.7485V10.1393H67.7504Z" fill="#13024F"/>
<path d="M95.0732 35.6382C93.071 35.6382 91.2858 35.306 89.7196 34.6454C88.1534 33.9848 86.8285 33.0718 85.7466 31.9083C84.6648 30.7466 83.8409 29.3567 83.2767 27.7423C82.7108 26.1279 82.4287 24.352 82.4287 22.4128C82.4287 20.4736 82.7108 18.7479 83.2767 17.1334C83.8409 15.519 84.6648 14.1291 85.7466 12.9674C86.8285 11.8039 88.1516 10.8928 89.7196 10.2303C91.2858 9.56971 93.0691 9.23755 95.0732 9.23755C97.0774 9.23755 98.8588 9.56971 100.427 10.2303C101.993 10.8928 103.316 11.8039 104.4 12.9674C105.482 14.1291 106.306 15.519 106.87 17.1334C107.434 18.7479 107.718 20.5089 107.718 22.4128C107.718 24.3167 107.434 26.1279 106.87 27.7423C106.304 29.3567 105.482 30.7466 104.4 31.9083C103.318 33.0699 101.993 33.9848 100.427 34.6454C98.8607 35.3079 97.0755 35.6382 95.0732 35.6382ZM95.0732 31.2773C96.2998 31.2773 97.3669 31.0194 98.2706 30.5017C99.1743 29.9858 99.9184 29.3066 100.499 28.4679C101.08 27.6291 101.509 26.6846 101.783 25.6342C102.058 24.5858 102.195 23.5114 102.195 22.4128C102.195 21.3142 102.058 20.2806 101.783 19.2155C101.509 18.1503 101.08 17.2058 100.499 16.3819C99.9184 15.558 99.1743 14.8881 98.2706 14.3722C97.3669 13.8563 96.2998 13.5965 95.0732 13.5965C93.8466 13.5965 92.7796 13.8545 91.8759 14.3722C90.9722 14.8899 90.2281 15.5598 89.6473 16.3819C89.0664 17.2058 88.6378 18.1503 88.3631 19.2155C88.0885 20.2806 87.9512 21.3477 87.9512 22.4128C87.9512 23.478 88.0885 24.5858 88.3631 25.6342C88.6378 26.6846 89.0646 27.6291 89.6473 28.4679C90.2281 29.3085 90.9704 29.9858 91.8759 30.5017C92.7796 31.0194 93.8448 31.2773 95.0732 31.2773Z" fill="#13024F"/>
<defs>
<linearGradient id="paint0_linear_1998_3915" x1="0.376641" y1="14.309" x2="13.3979" y2="10.8778" gradientUnits="userSpaceOnUse">
<stop stop-color="#5600CA"/>
<stop offset="1" stop-color="#8313FF"/>
</linearGradient>
</defs>
</svg>
