<svg width="48" height="49" viewBox="0 0 48 49" fill="none" xmlns="http://www.w3.org/2000/svg">
<rect y="0.978943" width="48" height="48" rx="24" fill="white"/>
<path d="M24.738 12.3502C24.5486 12.143 24.2808 12.0249 24 12.0249C23.7192 12.0249 23.4514 12.143 23.262 12.3502L17.9286 18.1835C17.556 18.5911 17.5843 19.2236 17.9919 19.5963C18.3995 19.969 19.032 19.9406 19.4047 19.533L23 15.6007V30.3583C23 30.9106 23.4477 31.3583 24 31.3583C24.5523 31.3583 25 30.9106 25 30.3583V15.6007L28.5953 19.533C28.968 19.9406 29.6005 19.969 30.0081 19.5963C30.4157 19.2236 30.444 18.5911 30.0714 18.1835L24.738 12.3502Z" fill="#070724"/>
<path d="M13 29.0249C13 28.4726 12.5523 28.0249 12 28.0249C11.4477 28.0249 11 28.4726 11 29.0249V29.0981C11 30.9215 11 32.3913 11.1554 33.5473C11.3167 34.7474 11.6619 35.7579 12.4645 36.5605C13.267 37.363 14.2775 37.7082 15.4777 37.8696C16.6336 38.025 18.1034 38.025 19.9268 38.0249H28.0732C29.8966 38.025 31.3664 38.025 32.5223 37.8696C33.7225 37.7082 34.733 37.363 35.5355 36.5605C36.3381 35.7579 36.6833 34.7474 36.8446 33.5473C37.0001 32.3913 37 30.9215 37 29.0981V29.0249C37 28.4726 36.5523 28.0249 36 28.0249C35.4477 28.0249 35 28.4726 35 29.0249C35 30.9388 34.9979 32.2736 34.8625 33.2808C34.7309 34.2591 34.4903 34.7772 34.1213 35.1463C33.7523 35.5153 33.2342 35.7559 32.2558 35.8874C31.2487 36.0228 29.9139 36.0249 28 36.0249H20C18.0861 36.0249 16.7513 36.0228 15.7442 35.8874C14.7658 35.7559 14.2477 35.5153 13.8787 35.1463C13.5097 34.7772 13.2691 34.2591 13.1375 33.2808C13.0021 32.2736 13 30.9388 13 29.0249Z" fill="#070724"/>
</svg>
